<?xml version="1.0" encoding="UTF-8"?><svg id="Capa_2" xmlns="http://www.w3.org/2000/svg" viewBox="0 0 57.5 36.56"><defs><style>.cls-1{fill:#4200df;stroke-width:0px;}</style></defs><g id="Capa_4"><path class="cls-1" d="M56.98,25.21l-7.88-3.5c-3.61-3.13-5.43-7.86-4.87-12.6l3.5-7.89c.19-.44,0-.95-.44-1.15-.44-.19-.95,0-1.15.44l-3.49,7.86c-3.12,3.6-7.82,5.43-12.55,4.89L1.22.43c-.44-.2-.95,0-1.15.44-.19.44,0,.95.44,1.15l28.75,12.78c3.65,3.13,5.5,7.88,4.93,12.65l-3.5,7.89c-.19.44,0,.95.44,1.15.11.05.23.07.35.07.33,0,.65-.19.79-.52l3.49-7.86c3.13-3.62,7.87-5.45,12.63-4.88l7.87,3.5c.11.05.23.08.35.08.33,0,.65-.19.79-.52.19-.44,0-.95-.44-1.15Z"/></g></svg>