<?xml version="1.0" encoding="UTF-8"?><svg id="Capa_2" xmlns="http://www.w3.org/2000/svg" viewBox="0 0 22.04 22.04"><defs><style>.cls-1{fill:#fff;stroke-width:0px;}</style></defs><g id="Capa_4"><path class="cls-1" d="M16.43,6.93c-.13-.32-.28-.55-.52-.8s-.47-.39-.8-.52c-.24-.1-.61-.21-1.29-.24-.73-.03-.95-.04-2.8-.04s-2.07,0-2.8.04c-.68.03-1.04.14-1.29.24-.32.13-.55.28-.8.52s-.39.47-.52.8c-.1.24-.21.61-.24,1.29-.03.73-.04.95-.04,2.8s0,2.07.04,2.8c.03.68.14,1.04.24,1.29.13.32.28.55.52.8s.47.39.8.52c.24.1.61.21,1.29.24.73.03.95.04,2.8.04s2.07,0,2.8-.04c.68-.03,1.04-.14,1.29-.24.32-.13.56-.28.8-.52s.39-.47.52-.8c.09-.24.21-.61.24-1.29.03-.73.04-.95.04-2.8s0-2.07-.04-2.8c-.03-.68-.14-1.04-.24-1.29ZM11.02,14.58c-1.97,0-3.56-1.6-3.56-3.56s1.6-3.56,3.56-3.56,3.56,1.6,3.56,3.56-1.6,3.56-3.56,3.56ZM14.72,8.15c-.46,0-.83-.37-.83-.83s.37-.83.83-.83.83.37.83.83-.37.83-.83.83Z"/><path class="cls-1" d="M11.02,0C4.93,0,0,4.93,0,11.02s4.93,11.02,11.02,11.02,11.02-4.93,11.02-11.02S17.1,0,11.02,0ZM17.92,13.88c-.03.74-.15,1.24-.32,1.68-.18.46-.41.84-.8,1.23s-.77.62-1.23.8c-.44.17-.95.29-1.68.32-.74.03-.98.04-2.86.04s-2.12,0-2.86-.04c-.74-.03-1.24-.15-1.68-.32-.46-.18-.84-.41-1.23-.8-.39-.39-.62-.77-.8-1.23-.17-.44-.29-.95-.32-1.68-.03-.74-.04-.98-.04-2.86s0-2.12.04-2.86c.03-.74.15-1.24.32-1.68.18-.46.41-.84.8-1.23.39-.39.77-.62,1.23-.8.44-.17.95-.29,1.68-.32.74-.03.98-.04,2.86-.04s2.12,0,2.86.04c.74.03,1.24.15,1.68.32.46.18.84.41,1.23.8s.62.77.8,1.23c.17.44.29.95.32,1.68.03.74.04.98.04,2.86s0,2.12-.04,2.86Z"/><path class="cls-1" d="M11.02,8.71c-1.28,0-2.31,1.04-2.31,2.31s1.04,2.31,2.31,2.31,2.31-1.04,2.31-2.31-1.04-2.31-2.31-2.31Z"/></g></svg>