<?xml version="1.0" encoding="UTF-8"?><svg id="Capa_2" xmlns="http://www.w3.org/2000/svg" viewBox="0 0 63.44 63.44"><defs><style>.cls-1{stroke:#4c4f45;stroke-miterlimit:10;stroke-width:1.64px;}.cls-1,.cls-2{fill:#fff;}.cls-3{fill:#4c4f45;}.cls-3,.cls-2,.cls-4{stroke-width:0px;}.cls-4{fill:#d3932d;}</style></defs><g id="Capa_2-2"><circle class="cls-1" cx="31.72" cy="31.72" r="30.9"/><path class="cls-3" d="M30.55,38.76c-.32,0-.64-.04-.95-.13-.94-.25-1.72-.85-2.2-1.69-.48-.84-.61-1.82-.36-2.75.1-.38.26-.74.47-1.06-.38.02-.77-.02-1.15-.12-.94-.25-1.72-.85-2.2-1.69l-.03-.04c-.69-1.21-1.14-2.56-1.29-3.94-1.6-1.35-2.34-3.46-1.9-5.54.05-.24.15-.45.29-.63-.95-1.48-1.21-3.37-.53-5.13.15-.4.46-.71.83-.87-.82-1.66-.83-3.68.16-5.4.42-.74,1.37-.99,2.11-.57l1,.57h0s13.22,7.61,13.22,7.61c1.55.89,2.85,2.19,3.74,3.74,1.34,2.32,1.7,5.14,1.01,7.72-.69,2.58-2.42,4.83-4.75,6.17l-5.67,3.26c-.56.32-1.18.49-1.8.49ZM32.94,23.29c-.5,0-.99.13-1.44.39-.68.39-1.15,1.01-1.36,1.77-.2.76-.1,1.53.29,2.21l.03.05c.48.83.61,1.81.36,2.75-.04.14-.09.29-.14.42l3.74-2.15c.68-.39,1.15-1.01,1.36-1.77.2-.76.1-1.53-.29-2.21-.27-.47-.63-.84-1.03-1.05-.21-.11-.55-.26-.74-.31-.26-.07-.51-.1-.77-.1Z"/><path class="cls-2" d="M40.65,21.77c-.81-1.4-1.95-2.51-3.27-3.26l-14.21-8.18h0c-.12-.07-.28-.03-.36.09-1.22,2.12-.49,4.82,1.63,6.04l3.78,2.18-5.97-2.28h0c-.13-.05-.28.02-.34.15h0c-.87,2.28.27,4.84,2.55,5.71l.36.14-2.31-.49c-.14-.03-.28.06-.31.2h0c-.39,1.82.41,3.62,1.87,4.59.07,1.36.45,2.72,1.17,3.97l.03.05c.65,1.12,2.08,1.51,3.2.86,1.12-.65,1.51-2.08.86-3.2l-.03-.05c-.58-1.01-.69-2.14-.42-3.19.28-1.04.95-1.96,1.96-2.55,1.01-.58,2.14-.69,3.19-.42.32.09.76.29,1,.42.63.33,1.16.87,1.54,1.54.58,1.01.69,2.14.42,3.19-.28,1.04-.95,1.96-1.96,2.55l-5.67,3.26c-1.12.65-1.51,2.08-.86,3.2.65,1.12,2.08,1.51,3.2.86l5.67-3.26c2.12-1.22,3.56-3.2,4.15-5.39.59-2.19.34-4.62-.88-6.74Z"/><path class="cls-4" d="M29.65,29.51c0,1.29-1.05,2.34-2.34,2.34s-2.34-1.05-2.34-2.34,1.05-2.34,2.34-2.34,2.34,1.05,2.34,2.34Z"/><path class="cls-4" d="M31.71,37.17l5.67-3.26c1.12-.65,1.51-2.08.86-3.2h0c-.65-1.12-2.08-1.51-3.2-.86h0l-5.67,3.26c-1.12.65-1.51,2.08-.86,3.2h0c.65,1.12,2.08,1.51,3.2.86h0Z"/><path class="cls-3" d="M14.12,43.28c.44,0,.79.34.79.79s-.35.78-.79.78-.79-.34-.79-.78.35-.79.79-.79ZM13.44,45.25h1.39v3.04c0,.34.08.49.32.49.08,0,.14,0,.17-.02v1.18c-.12.05-.33.07-.64.07-.82,0-1.23-.44-1.23-1.32v-3.45Z"/><path class="cls-3" d="M16.24,45.88c.45-.47,1-.71,1.66-.71.71,0,1.26.29,1.39.7v-2.41h1.39v4.84c0,.37.09.52.34.52.07,0,.15,0,.23-.02v1.15c-.15.05-.35.07-.62.07-.31,0-.57-.06-.76-.17-.21-.14-.35-.31-.42-.5-.31.46-.82.68-1.55.68-.66,0-1.22-.23-1.66-.7-.44-.47-.66-1.05-.66-1.74s.22-1.26.66-1.72ZM19.02,48.43c.24-.23.36-.51.36-.84s-.12-.6-.36-.83c-.23-.23-.52-.34-.86-.34s-.61.11-.85.34c-.23.22-.34.5-.34.83s.11.6.34.84c.23.22.51.33.85.33s.63-.11.86-.33Z"/><path class="cls-3" d="M22.06,48.74c.31-.3.77-.3,1.07,0,.31.3.31.76,0,1.06-.3.3-.76.3-1.07,0-.3-.3-.3-.76,0-1.06Z"/><path class="cls-3" d="M24.33,45.88c.45-.47,1-.71,1.66-.71.71,0,1.26.29,1.39.7v-.61h1.39v3.04c0,.37.09.52.34.52.07,0,.15,0,.23-.02v1.15c-.15.05-.35.07-.62.07-.31,0-.57-.06-.76-.17-.21-.14-.35-.31-.42-.5-.31.46-.82.68-1.55.68-.66,0-1.22-.23-1.66-.7-.44-.47-.66-1.05-.66-1.74s.22-1.26.66-1.72ZM27.11,48.43c.24-.23.36-.51.36-.84s-.12-.6-.36-.83c-.23-.23-.52-.34-.86-.34s-.61.11-.85.34c-.23.22-.34.5-.34.83s.11.6.34.84c.23.22.51.33.85.33s.63-.11.86-.33Z"/><path class="cls-4" d="M33.86,43.46h.46v5.27c0,.62.21.89.7.89.16,0,.29,0,.39-.04v.43c-.14.03-.27.05-.39.05-.77,0-1.16-.44-1.16-1.3v-5.3Z"/><path class="cls-4" d="M35.99,44.23c-.12-.12-.12-.34,0-.47.3-.33.8.19.47.47-.12.12-.33.12-.47,0ZM36,45.25h.46v3.84c0,.36.09.51.38.51.08,0,.18,0,.26-.02v.39c-.1.04-.22.06-.38.06-.48,0-.73-.29-.73-.86v-3.92Z"/><path class="cls-4" d="M37.7,43.46h.46v2.77c.1-.31.33-.56.66-.77.34-.21.74-.33,1.2-.33.66,0,1.22.23,1.67.71s.69,1.06.69,1.76-.23,1.28-.69,1.76-1.01.71-1.67.71c-.46,0-.86-.1-1.2-.32-.33-.21-.56-.47-.66-.78v.98h-.46v-6.48ZM41.37,49.05c.36-.39.55-.87.55-1.45s-.19-1.05-.55-1.44-.81-.59-1.35-.59-1,.2-1.37.58c-.36.38-.55.86-.55,1.45s.19,1.08.55,1.46c.36.38.82.57,1.37.57s.99-.2,1.35-.58Z"/><path class="cls-4" d="M45.48,45.19v.48c-.07,0-.18-.02-.3-.02-.49,0-.86.17-1.13.49-.26.33-.39.73-.39,1.23v2.57h-.46v-4.69h.46v.94c.23-.68.76-1.01,1.59-1.01.1,0,.18,0,.22,0Z"/><path class="cls-4" d="M45.65,47.61c0-.73.21-1.32.65-1.78.44-.46.99-.7,1.64-.7s1.14.22,1.55.68c.42.46.62,1,.62,1.66,0,.09,0,.17,0,.23h-4c0,.57.19,1.02.53,1.38.34.35.79.53,1.32.53.59,0,1.1-.22,1.53-.68l.31.3c-.47.55-1.09.82-1.84.82-.68,0-1.23-.22-1.66-.67-.43-.46-.64-1.03-.64-1.75v-.03ZM49.63,47.29c0-.47-.18-.88-.5-1.22s-.72-.5-1.19-.5-.91.17-1.26.5c-.34.33-.53.73-.55,1.22h3.51Z"/></g></svg>