<?xml version="1.0" encoding="UTF-8"?><svg id="Capa_2" xmlns="http://www.w3.org/2000/svg" viewBox="0 0 78.11 8.19"><defs><style>.cls-1{fill:#fff;stroke-width:0px;}</style></defs><g id="Capa_2-2"><path class="cls-1" d="M.01,8.05V.09S2.84.09,2.84.09c.47,0,.9.1,1.29.31s.71.48.94.82c.23.34.35.72.35,1.13s-.12.77-.35,1.12c-.23.35-.55.62-.94.83s-.83.31-1.29.31H.56v3.46H.01ZM.56,4.02h2.28c.37,0,.71-.08,1.02-.23s.56-.36.74-.61.28-.54.28-.84-.09-.59-.28-.85c-.18-.26-.43-.46-.74-.61s-.65-.23-1.02-.23H.55v3.37Z"/><path class="cls-1" d="M10.92,8.14c-.73,0-1.4-.18-2.02-.55-.62-.36-1.11-.86-1.47-1.48-.36-.62-.54-1.31-.54-2.04s.18-1.42.54-2.04.85-1.12,1.47-1.48c.62-.36,1.29-.55,2.02-.55s1.4.18,2.02.55c.62.36,1.11.86,1.47,1.48.36.62.54,1.31.54,2.04s-.18,1.42-.54,2.04c-.36.63-.85,1.12-1.47,1.48-.62.36-1.29.55-2.02.55ZM10.92.56c-.63,0-1.21.16-1.74.47-.53.32-.95.74-1.27,1.28s-.47,1.12-.47,1.76.16,1.22.47,1.76.74.96,1.27,1.27,1.11.47,1.74.47,1.21-.16,1.74-.47c.53-.31.95-.74,1.26-1.27.31-.54.47-1.12.47-1.76s-.16-1.22-.47-1.76c-.31-.54-.73-.96-1.26-1.28-.53-.31-1.11-.47-1.74-.47Z"/><path class="cls-1" d="M22.88,6.47L24.85.09h.59l-2.51,8.1-2.27-5.93-2.29,5.93L15.84.09h.58l2,6.41,2.24-5.79,2.22,5.76Z"/><path class="cls-1" d="M27.26,8.05V.09h5.16v.56h-4.61v3.14h3.59v.56h-3.59v3.13h4.61v.58h-5.16Z"/><path class="cls-1" d="M39.33,8.05l-3.31-4.02h.98c.61,0,1.1-.08,1.47-.23.28-.13.52-.33.72-.59.21-.27.31-.56.31-.88,0-.29-.09-.56-.26-.82-.17-.26-.42-.47-.74-.63-.32-.16-.69-.25-1.1-.25h-2.23v7.42h-.55V.09h2.78c.38,0,.73.06,1.05.18.33.12.61.29.86.51.24.21.42.45.55.72.13.27.19.55.19.83,0,.45-.13.85-.4,1.21s-.59.61-.96.77c-.25.11-.5.19-.74.21-.24.03-.5.04-.77.04l2.88,3.49h-.74Z"/><path class="cls-1" d="M42.29,8.05V.09h5.16v.56h-4.61v3.14h3.59v.56h-3.59v3.13h4.61v.58h-5.16Z"/><path class="cls-1" d="M51.94,8.05h-2.29V.09h2.29c.56,0,1.09.1,1.57.31.48.21.9.5,1.25.89.33.37.59.79.77,1.26.18.47.27.98.27,1.51s-.09,1.03-.27,1.51c-.18.47-.44.9-.77,1.27-.35.39-.77.69-1.25.9-.48.21-1,.31-1.57.31ZM50.2,7.5h1.74c.99,0,1.79-.35,2.42-1.04.29-.31.5-.67.66-1.08.15-.41.23-.85.23-1.32s-.08-.89-.23-1.31c-.15-.41-.37-.77-.66-1.08-.63-.68-1.43-1.02-2.42-1.02h-1.74v6.85Z"/><path class="cls-1" d="M67.04,4.63c.27.35.4.74.4,1.18,0,.29-.06.57-.19.84-.13.27-.31.52-.55.73-.25.21-.53.38-.86.5s-.68.18-1.05.18h-2.93V.09h2.29c.74,0,1.34.21,1.78.63.2.19.36.4.47.65s.17.5.17.76c0,.33-.08.62-.23.9-.15.27-.34.48-.56.62l-.11.07c.16.05.29.1.4.15.38.16.7.42.96.77ZM62.42,3.56h1.7c.22,0,.4-.01.55-.04.15-.02.29-.07.44-.12.21-.09.41-.25.61-.47s.29-.49.29-.81c0-.25-.07-.49-.21-.72-.14-.22-.36-.41-.64-.55-.28-.14-.62-.21-1.01-.21h-1.73v2.91ZM65.89,7.26c.32-.16.56-.37.74-.63.17-.26.26-.53.26-.82,0-.32-.1-.61-.3-.86-.2-.26-.44-.45-.72-.57-.39-.17-.89-.26-1.48-.26h-1.96v3.38h2.37c.42,0,.78-.08,1.1-.25Z"/><path class="cls-1" d="M71.83,4.7L74.96.09h.66l-3.53,5.21v2.76h-.55v-2.76L68.01.09h.66l3.15,4.61Z"/><path class="cls-1" d="M77.27,4.24c0-.11.04-.21.12-.3.08-.09.18-.13.29-.13.12,0,.22.04.31.13.08.09.12.19.12.3s-.04.21-.12.3c-.08.09-.18.13-.31.13-.12,0-.21-.04-.29-.12-.08-.08-.12-.18-.12-.31ZM77.27,6.82c0-.12.04-.22.12-.31.08-.08.18-.12.29-.12.12,0,.22.04.31.13.08.08.12.19.12.3s-.04.21-.12.3c-.08.09-.18.13-.31.13-.12,0-.21-.04-.29-.13-.08-.09-.12-.19-.12-.3Z"/></g></svg>