<?xml version="1.0" encoding="UTF-8"?><svg id="Capa_2" xmlns="http://www.w3.org/2000/svg" xmlns:xlink="http://www.w3.org/1999/xlink" viewBox="0 0 1227.83 254.06"><defs><style>.cls-1{fill:#5d29ff;}.cls-1,.cls-2,.cls-3,.cls-4,.cls-5{stroke-width:0px;}.cls-2{fill:url(#Degradado_sin_nombre_3);}.cls-3{fill:url(#Degradado_sin_nombre_2);}.cls-4{fill:url(#Degradado_sin_nombre_113);}.cls-5{fill:url(#Degradado_sin_nombre_119);}</style><radialGradient id="Degradado_sin_nombre_113" cx="-331.31" cy="-848.93" fx="-391.2" fy="-910.73" r="657.56" gradientTransform="translate(1082.2 -568.3) rotate(-86.66) scale(.79 .87)" gradientUnits="userSpaceOnUse"><stop offset=".7" stop-color="#4200e5"/><stop offset=".7" stop-color="#5419e4"/><stop offset=".73" stop-color="#916ee1"/><stop offset=".75" stop-color="#beacde"/><stop offset=".76" stop-color="#dad2dd"/><stop offset=".77" stop-color="#e5e1dd"/></radialGradient><radialGradient id="Degradado_sin_nombre_3" cx="-296.13" cy="-240.16" fx="-321.99" fy="-240.16" r="327.9" gradientTransform="translate(594.56 319.41) scale(.79)" gradientUnits="userSpaceOnUse"><stop offset=".31" stop-color="#e5e1dd"/><stop offset=".33" stop-color="#d7cddd"/><stop offset=".38" stop-color="#b29bdf"/><stop offset=".44" stop-color="#794ce2"/><stop offset=".5" stop-color="#4200e5"/><stop offset=".66" stop-color="#2400a3"/><stop offset=".84" stop-color="#000050"/></radialGradient><radialGradient id="Degradado_sin_nombre_119" cx="-794.04" cy="-11.81" fx="-794.04" fy="-11.81" r="650.78" gradientTransform="translate(477.69 674.51) rotate(34.87) scale(.79 .65)" gradientUnits="userSpaceOnUse"><stop offset=".31" stop-color="#000050"/><stop offset=".33" stop-color="#04005a"/><stop offset=".42" stop-color="#1a008b"/><stop offset=".5" stop-color="#2b00b2"/><stop offset=".58" stop-color="#3700ce"/><stop offset=".65" stop-color="#3f00df"/><stop offset=".7" stop-color="#4200e5"/><stop offset=".72" stop-color="#4504e4"/><stop offset=".74" stop-color="#4e10e4"/><stop offset=".76" stop-color="#5d25e3"/><stop offset=".78" stop-color="#7242e2"/><stop offset=".8" stop-color="#8d67e1"/><stop offset=".82" stop-color="#ae95df"/><stop offset=".84" stop-color="#d4cadd"/><stop offset=".85" stop-color="#e5e1dd"/></radialGradient><radialGradient id="Degradado_sin_nombre_2" cx="-300.25" cy="-258.55" fx="-300.25" fy="-258.55" r="306.9" gradientTransform="translate(594.56 319.41) scale(.79)" gradientUnits="userSpaceOnUse"><stop offset=".26" stop-color="#e5e1dd"/><stop offset=".3" stop-color="#c9bbde"/><stop offset=".42" stop-color="#8157e1"/><stop offset=".5" stop-color="#5318e4"/><stop offset=".54" stop-color="#4200e5"/><stop offset=".68" stop-color="#4100e2"/><stop offset=".76" stop-color="#3d00db"/><stop offset=".81" stop-color="#3700cd"/><stop offset=".86" stop-color="#2f00ba"/><stop offset=".91" stop-color="#2400a2"/><stop offset=".95" stop-color="#170084"/><stop offset=".98" stop-color="#070061"/><stop offset="1" stop-color="#000050"/></radialGradient></defs><g id="Capa_2-2"><path class="cls-1" d="M741.08,7.92h68.2v13.94h-53.87v32.67h21.2v13.94h-21.2v35.15h56.56v13.94h-70.89V7.92Z"/><path class="cls-1" d="M831.52,7.92h18.8l58.2,90.12h.3V7.92h14.33v109.63h-18.21l-58.8-90.12h-.3v90.12h-14.33V7.92Z"/><path class="cls-1" d="M971.65,21.86h-34.03V7.92h82.38v13.94h-34.03v95.69h-14.33V21.86Z"/><path class="cls-1" d="M1082.98,120.34c-8.06,0-15.47-1.47-22.24-4.41-6.77-2.94-12.56-6.99-17.39-12.16-4.83-5.16-8.61-11.25-11.34-18.27-2.74-7.02-4.1-14.61-4.1-22.76s1.37-15.74,4.1-22.76c2.74-7.02,6.51-13.11,11.34-18.27,4.82-5.16,10.62-9.21,17.39-12.16,6.76-2.94,14.18-4.41,22.24-4.41s15.47,1.47,22.24,4.41c6.76,2.94,12.56,6.99,17.39,12.16,4.82,5.16,8.6,11.25,11.34,18.27,2.74,7.02,4.1,14.61,4.1,22.76s-1.37,15.74-4.1,22.76c-2.74,7.02-6.52,13.11-11.34,18.27-4.83,5.16-10.62,9.21-17.39,12.16-6.77,2.94-14.18,4.41-22.24,4.41ZM1082.98,106.4c6.07,0,11.54-1.16,16.42-3.48,4.87-2.32,9.05-5.44,12.54-9.37,3.48-3.92,6.17-8.54,8.06-13.86,1.89-5.32,2.84-10.97,2.84-16.96s-.95-11.64-2.84-16.96c-1.89-5.32-4.58-9.93-8.06-13.86-3.48-3.92-7.66-7.05-12.54-9.37-4.88-2.32-10.35-3.48-16.42-3.48s-11.54,1.16-16.42,3.48c-4.88,2.32-9.05,5.45-12.54,9.37-3.48,3.92-6.17,8.54-8.06,13.86-1.89,5.32-2.84,10.97-2.84,16.96s.94,11.64,2.84,16.96c1.89,5.32,4.58,9.94,8.06,13.86,3.48,3.92,7.66,7.05,12.54,9.37,4.87,2.32,10.35,3.48,16.42,3.48Z"/><path class="cls-1" d="M633.33,140.11h21.34l33.58,83h.6l33.28-83h21.34v109.63h-14.33v-90.12h-.3l-35.67,90.12h-9.55l-35.67-90.12h-.3v90.12h-14.33v-109.63Z"/><path class="cls-1" d="M782.57,222.64l-10.45,27.1h-16.71l46.56-109.63h12.98l45.22,109.63h-16.72l-10.6-27.1-5.22-13.01-19.7-50.32h-.3l-20,50.32-5.07,13.01Z"/><path class="cls-1" d="M1150.22,222.64l-10.45,27.1h-16.71l46.56-109.63h12.98l45.22,109.63h-16.72l-10.6-27.1-5.22-13.01-19.7-50.32h-.3l-20,50.32-5.07,13.01Z"/><path class="cls-1" d="M977.03,249.74h-60.89c-7.46,0-14.53-1.39-21.19-4.18-6.67-2.79-12.49-6.66-17.46-11.61-4.98-4.95-8.91-10.86-11.79-17.73-2.89-6.86-4.33-14.37-4.33-22.53s1.39-15.51,4.18-22.38c2.78-6.86,6.64-12.83,11.57-17.88,4.93-5.06,10.69-9,17.31-11.85,6.62-2.84,13.8-4.26,21.56-4.26s14.45,1.39,20.97,4.18c6.52,2.79,12.21,6.63,17.09,11.54,4.87,4.9,8.73,10.68,11.57,17.34,2.84,6.66,4.25,13.91,4.25,21.76,0,4.65-.52,9.21-1.57,13.7-1.04,4.49-2.59,8.7-4.63,12.62-2.04,3.92-4.58,7.43-7.61,10.53-3.04,3.1-6.49,5.57-10.37,7.43v.31h31.34v13.01ZM915.54,235.8c5.77,0,11.07-1.11,15.89-3.33,4.82-2.22,8.95-5.26,12.39-9.14,3.43-3.87,6.09-8.44,7.98-13.7,1.89-5.26,2.84-10.89,2.84-16.88s-.97-11.2-2.91-16.26c-1.94-5.06-4.65-9.45-8.13-13.16-3.48-3.72-7.61-6.66-12.39-8.83-4.78-2.17-10-3.25-15.67-3.25s-10.72,1.08-15.45,3.25c-4.73,2.17-8.83,5.11-12.31,8.83-3.48,3.72-6.22,8.08-8.21,13.08-1.99,5.01-2.98,10.35-2.98,16.03,0,5.99.94,11.61,2.84,16.88,1.89,5.26,4.55,9.86,7.98,13.78,3.43,3.92,7.54,7.02,12.31,9.29,4.78,2.27,10.05,3.41,15.82,3.41Z"/><path class="cls-1" d="M1003.74,140.11v67.2c0,3.41.45,6.94,1.34,10.61.9,3.67,2.39,7.05,4.48,10.14,2.09,3.1,4.82,5.63,8.21,7.59,3.38,1.96,7.56,2.94,12.54,2.94s9.15-.98,12.54-2.94c3.38-1.96,6.12-4.49,8.21-7.59,2.09-3.1,3.58-6.48,4.48-10.14.9-3.66,1.34-7.2,1.34-10.61v-67.2h14.33v69.52c0,6.4-1.04,12.21-3.13,17.42-2.09,5.21-4.98,9.73-8.66,13.55-3.68,3.82-8.01,6.76-12.98,8.83-4.98,2.06-10.35,3.1-16.12,3.1s-11.14-1.03-16.12-3.1c-4.98-2.06-9.3-5.01-12.98-8.83-3.68-3.82-6.57-8.33-8.66-13.55-2.09-5.21-3.13-11.02-3.13-17.42v-69.52h14.33Z"/><path class="cls-1" d="M1095.67,140.11h14.33v109.63h-14.33v-109.63Z"/><path class="cls-1" d="M633.33,7.92h14.28l.55,82.53L713.28,7.92h15.95l-82.33,109.73h-13.44l-.13-109.73Z"/><path class="cls-4" d="M396.79,18.56l8.18-18.56H117.52l153.11,67.51c48.15,21.23,104.92-.79,126.16-48.95Z"/><path class="cls-2" d="M575.88,95.68c0-52.63-43.06-95.68-95.69-95.68h-63.51l-9.93,22.51c-21.23,48.15.79,104.92,48.95,126.15l111.59,49.2c5.51-12.05,8.58-25.43,8.58-39.49v-62.69Z"/><path class="cls-5" d="M264.65,81.07L82.78.88C36.2,7.23,0,47.43,0,95.68v62.69c0,52.63,43.06,95.68,95.69,95.68h197.26l20.65-46.84c21.23-48.15-.79-104.92-48.95-126.15Z"/><path class="cls-3" d="M323.58,211.17l-18.91,42.89h175.53c33.28,0,62.72-17.22,79.88-43.18l-110.34-48.65c-48.15-21.23-104.92.79-126.16,48.95Z"/></g></svg>