<?xml version="1.0" encoding="UTF-8"?><svg id="Capa_2" xmlns="http://www.w3.org/2000/svg" viewBox="0 0 47.05 31.68"><defs><style>.cls-1{fill:#00e1ff;stroke-width:0px;}</style></defs><g id="Capa_4"><path class="cls-1" d="M29.06,25.89c-.13-1.24.08-2.44.55-3.5l5.11-11.51h0s0,0,0,0c.04-.1.16-.15.26-.1,1.72.76,2.49,2.77,1.73,4.49,0,0-7.45,12.49-7.65,10.63"/><path class="cls-1" d="M35.81,31.44c.54-.78,1.27-1.36,2.08-1.73l8.72-4.03h0s0,0,0,0c.08-.04.17,0,.2.07.6,1.3.03,2.84-1.26,3.44,0,0-10.55,3.42-9.73,2.25"/><path class="cls-1" d="M16.47,22.07c-.57-1.48-.71-3.03-.48-4.5l2.5-15.88h0s0,0,0,0c.02-.14.15-.23.29-.21,2.37.37,3.98,2.59,3.61,4.96,0,0-5.06,17.87-5.92,15.63"/><path class="cls-1" d="M7.78,21.63c-1.28-1.19-2.16-2.65-2.63-4.21L.01.56h0s0,0,0,0c-.05-.15.04-.3.19-.35,2.51-.77,5.17.65,5.94,3.16,0,0,3.57,20.05,1.65,18.26"/></g></svg>