<?xml version="1.0" encoding="UTF-8"?><svg id="Capa_2" xmlns="http://www.w3.org/2000/svg" viewBox="0 0 51.72 51.72"><defs><style>.cls-1{fill:#4200df;fill-rule:evenodd;}.cls-1,.cls-2{stroke-width:0px;}.cls-2{fill:#fff;}</style></defs><g id="Capa_2-2"><circle class="cls-2" cx="25.86" cy="25.86" r="25.86"/><path class="cls-1" d="M25.86,2.04c-.31,0-.55-.25-.55-.55s.25-.55.55-.55c6.88,0,13.11,2.79,17.63,7.3,4.51,4.51,7.3,10.74,7.3,17.63s-2.79,13.11-7.3,17.63c-4.51,4.51-10.74,7.3-17.63,7.3s-13.11-2.79-17.63-7.3C3.72,38.98.93,32.74.93,25.86c0-.31.25-.55.55-.55s.55.25.55.55c0,6.58,2.67,12.53,6.98,16.84,4.31,4.31,10.27,6.98,16.84,6.98s12.53-2.67,16.84-6.98c4.31-4.31,6.98-10.27,6.98-16.84s-2.67-12.53-6.98-16.84c-4.31-4.31-10.27-6.98-16.84-6.98h0ZM33.65,16.65c.72-.17,1.58-.68,1.97-.77-.44-.66-2.64-2.32-3.51-2.52.12.44,1.24,2.01,1.53,3.29h0ZM32.11,38.36c.98-.23,3.33-2.1,3.84-2.85-.4-.09-.65-.29-.99-.44-.35-.16-.76-.28-1.1-.44-.32.61-.58,1.68-1.25,2.8-.18.3-.42.6-.5.92h0ZM16.32,15.77c.53.12,1.21.65,2.19.88.15-.66.49-1.31.77-1.86.32-.64.67-1.15.99-1.75-.68.16-3.73,1.92-3.95,2.74h0ZM15.88,35.84c.34.09.81.66,1.47,1.16.25.19.31.28.55.44.21.14.32.19.54.33.25.17.27.19.54.34.36.19.9.5,1.28.58l-1.97-4.06c-.47.11-2.16.86-2.41,1.21h0ZM20.27,17.2c1.31.31,3.01.66,4.61.66v-6.03c-.81.07-1.21.28-1.67.74-1.85,1.8-1.92,2.73-2.93,4.64h0ZM20.16,33.97c.07.85,1.21,2.85,1.69,3.58.73,1.09,1.63,2.23,3.03,2.35v-6.58c-1.42.03-4.43.66-4.72.66h0ZM26.85,17.86c1.99,0,3.35-.26,5.04-.66-.83-1.58-1.36-3.34-3.05-4.73-.9-.74-.84-.37-1.99-.64v6.03h0ZM26.85,39.9c1.2-.28,1.74.14,3.34-2.15.51-.73,1.75-2.92,1.82-3.77-.58,0-2.93-.66-5.15-.66v6.58h0ZM34.41,32.88c.44.04,1.09.38,1.44.53.54.22.84.54,1.41.68.29-.55.62-.91.92-1.5.92-1.83,1.53-3.51,1.72-5.74h-4.72c0,1.15-.11,2.08-.25,3.15l-.52,2.88h0ZM19.61,32.22c.41-.03.72-.16,1.18-.25,1.21-.23,2.84-.52,4.09-.52v-4.61h-6.03c0,1.26.4,4.61.77,5.37h0ZM34.3,18.4l.88,6.47h4.72c-.17-2.07-.89-4.34-1.87-6.03-.19-.33-.83-1.35-1.09-1.54-.52.12-1.7.88-2.63,1.1h0ZM26.85,31.45c3.04,0,4.63.68,5.7.77.37-.76.77-4.11.77-5.37h-6.47v4.61h0ZM18.84,24.87h6.03v-5.15c-.99,0-1.76-.1-2.63-.22l-2.42-.43c-.48,0-.99,4.85-.99,5.81h0ZM14.57,34.3c.88-.47,2.14-1.18,3.18-1.43-.01-.64-.77-3.1-.77-6.03h-5.15c.38,4.57,2.59,6.9,2.74,7.46h0ZM11.83,24.87h5.15c0-3.44.86-5.74.88-6.47-.81-.19-2.25-.94-2.96-1.32-.87,1.3-1.25,1.55-1.99,3.38-.5,1.25-.94,2.76-1.08,4.4h0ZM27.4,19.72h-.55v5.15h6.47c0-.96-.51-5.81-.99-5.81l-2.32.42c-.88.12-1.64.24-2.61.24h0ZM21.96,1.24c-5.33.84-10.09,3.36-13.73,6.99-3.63,3.63-6.15,8.39-6.99,13.73-.05.3.16.58.46.63.3.05.58-.16.63-.46.81-5.09,3.21-9.64,6.69-13.12,3.48-3.48,8.02-5.88,13.12-6.69.3-.05.51-.33.46-.63-.05-.3-.33-.51-.63-.46Z"/></g></svg>