<?xml version="1.0" encoding="UTF-8"?><svg id="Capa_2" xmlns="http://www.w3.org/2000/svg" viewBox="0 0 51.72 51.72"><defs><style>.cls-1{fill:#4200df;fill-rule:evenodd;}.cls-1,.cls-2{stroke-width:0px;}.cls-2{fill:#fff;}</style></defs><g id="Capa_2-2"><circle class="cls-2" cx="25.86" cy="25.86" r="25.86" transform="translate(-5.25 45.09) rotate(-76.72)"/><path class="cls-1" d="M25.86,2.04c-.31,0-.55-.25-.55-.55s.25-.55.55-.55c6.88,0,13.11,2.79,17.63,7.3,4.51,4.51,7.3,10.74,7.3,17.63s-2.79,13.11-7.3,17.63c-4.51,4.51-10.74,7.3-17.63,7.3s-13.11-2.79-17.63-7.3C3.72,38.98.93,32.74.93,25.86c0-.31.25-.55.55-.55s.55.25.55.55c0,6.58,2.67,12.53,6.98,16.84,4.31,4.31,10.27,6.98,16.84,6.98s12.53-2.67,16.84-6.98c4.31-4.31,6.98-10.27,6.98-16.84s-2.67-12.53-6.98-16.84c-4.31-4.31-10.27-6.98-16.84-6.98Z"/><path class="cls-1" d="M21.96,1.24c.3-.05.58.16.63.46.05.3-.16.58-.46.63-5.09.81-9.64,3.21-13.12,6.69-3.48,3.48-5.88,8.02-6.69,13.12-.05.3-.33.51-.63.46-.3-.05-.51-.33-.46-.63.84-5.33,3.36-10.09,6.99-13.73,3.63-3.63,8.39-6.15,13.73-6.99Z"/><path class="cls-1" d="M25.86,9.52c6.81,0,12.33,6.22,12.33,11.94s-8.52,15.56-12.33,20.73c-3.81-6.1-12.33-15.01-12.33-20.73s5.52-11.94,12.33-11.94h0ZM25.86,13.96c-3.24,0-5.87,2.63-5.87,5.87s2.63,5.87,5.87,5.87,5.87-2.63,5.87-5.87-2.63-5.87-5.87-5.87Z"/></g></svg>