<?xml version="1.0" encoding="UTF-8"?><svg id="Capa_2" xmlns="http://www.w3.org/2000/svg" viewBox="0 0 51.72 51.72"><defs><style>.cls-1{fill:#4200df;fill-rule:evenodd;}.cls-1,.cls-2{stroke-width:0px;}.cls-2{fill:#fff;}</style></defs><g id="Capa_2-2"><circle class="cls-2" cx="25.86" cy="25.86" r="25.86" transform="translate(-3.19 48.08) rotate(-82.41)"/><path class="cls-1" d="M21.96,1.24c.3-.05.58.16.63.46.05.3-.16.58-.46.63-5.09.81-9.64,3.21-13.12,6.69-3.48,3.48-5.88,8.02-6.69,13.12-.05.3-.33.51-.63.46-.3-.05-.51-.33-.46-.63.84-5.33,3.36-10.09,6.99-13.73,3.63-3.63,8.39-6.15,13.73-6.99h0ZM25.86,2.04c6.58,0,12.53,2.67,16.84,6.98,4.31,4.31,6.98,10.27,6.98,16.84s-2.67,12.53-6.98,16.84c-4.31,4.31-10.27,6.98-16.84,6.98s-12.53-2.67-16.84-6.98c-4.31-4.31-6.98-10.27-6.98-16.84,0-.31-.25-.55-.55-.55s-.55.25-.55.55c0,6.88,2.79,13.11,7.3,17.63,4.51,4.51,10.74,7.3,17.63,7.3s13.11-2.79,17.63-7.3c4.51-4.51,7.3-10.74,7.3-17.63s-2.79-13.11-7.3-17.63C38.97,3.72,32.74.93,25.86.93c-.31,0-.55.25-.55.55s.25.55.55.55h0ZM14.14,15.02c-.56,0-1.08.23-1.45.6-.37.37-.6.88-.6,1.45v17.59c0,.56.23,1.08.6,1.45.37.37.88.6,1.45.6h23.45c.56,0,1.08-.23,1.45-.6.37-.37.6-.88.6-1.45v-17.59c0-.56-.23-1.08-.6-1.45-.37-.37-.88-.6-1.45-.6H14.14ZM26.08,23.7l1.3,3.12,4.38.27-3.38,2.67,1.08,4.03-3.68-2.22-3.68,2.22,1.08-4.03-3.38-2.67,4.38-.27,1.6-3.84.3.72h0ZM38.25,21.53H13.47v13.13c0,.18.08.35.2.47.12.12.29.2.47.2h23.45c.18,0,.35-.08.47-.2.12-.12.2-.29.2-.47v-13.13Z"/></g></svg>