<?xml version="1.0" encoding="UTF-8"?><svg id="Capa_2" xmlns="http://www.w3.org/2000/svg" viewBox="0 0 122.01 11.44"><defs><style>.cls-1{fill:#1de4ff;stroke-width:0px;}</style></defs><g id="Capa_4"><path class="cls-1" d="M121.93,11.06c.22-.05-.04-.06-.26-.12l.26.12Z"/><path class="cls-1" d="M121.67,10.93l-.19-.09s.11.06.19.09Z"/><path class="cls-1" d="M119.9,10.22c.45.05.89.35,1.21.3-.39-.23-1.05-.42-1.21-.3Z"/><polygon class="cls-1" points="120.49 10.53 120.57 10.47 120.16 10.47 120.49 10.53"/><polygon class="cls-1" points="120.72 10.7 120.68 10.65 120.08 10.53 120.72 10.7"/><path class="cls-1" d="M118.52,9.67l.42.12c.35.25-.31.06-.07.22.52.18.26-.16.89.1-.01-.12-1.04-.36-.88-.49-.53-.24-.06.09-.37.04Z"/><path class="cls-1" d="M92.7,4.32s-.04-.02-.06-.02c.02.02.04.04.06.02Z"/><path class="cls-1" d="M85.54,3.43c-.1-.03-.19-.05-.29-.07.03.02.06.04.11.06h.18Z"/><path class="cls-1" d="M97.21,4.77c.1.04.19.07.27.09-.05-.03-.13-.07-.27-.09Z"/><path class="cls-1" d="M51.36,1.09s.03-.03.04-.05c0,0,0,0-.01,0l-.08.05h.06Z"/><path class="cls-1" d="M77.49,2.89c-.11,0-.23,0-.33,0,.19.02.28.01.33,0Z"/><path class="cls-1" d="M99.77,5.25s-.07-.01-.11-.02c.03.01.08.03.13.04l-.02-.02h0Z"/><path class="cls-1" d="M87.85,3.95c-.09-.03-.18-.05-.26-.06.09.03.17.04.26.06Z"/><path class="cls-1" d="M112.17,7.46c-.12-.05-.22-.07-.31-.07.07.05.16.08.31.07Z"/><path class="cls-1" d="M109.67,6.75s.01,0,.01,0c0-.02-.02-.02-.01,0Z"/><path class="cls-1" d="M108.06,6.32h.03s-.02-.02-.03,0Z"/><path class="cls-1" d="M111.85,7.38c-.19-.12-.19-.35-.52-.2l.04.05c-.15-.1-.41-.08-.59-.12.01.03.03.05.05.08.09.03.21.07.4.14.21.11.39.05.62.06Z"/><path class="cls-1" d="M92.73,4.28s.19.05,0,0h0Z"/><path class="cls-1" d="M94.96,4.44l-.21-.05c.07.02.13.04.21.05Z"/><path class="cls-1" d="M103.17,6.13l-.04-.02s.02.02.04.02Z"/><path class="cls-1" d="M94.55,4.36l.2.04c-.06-.02-.12-.04-.2-.04Z"/><path class="cls-1" d="M100.74,5.48s-.02,0-.03-.01c0,0,.02,0,.03.01Z"/><path class="cls-1" d="M16.94,4.98c.16-.06.27-.02.43-.04.32-.23-.73.16-.25-.09-.16.04-.27.09-.38.13l.26.09c.29-.13-.22,0-.06-.1Z"/><path class="cls-1" d="M49.25.88h.07c-.05-.06,0-.08-.29-.1-.23.11.15.25-.26.38.08-.02.2-.02.31,0-.17-.08-.01-.19.17-.28Z"/><path class="cls-1" d="M49.08,1.16s0,0,.01,0c.02.01.04.02.06.03.06,0,.12,0,.17,0-.05-.02-.14-.04-.24-.05Z"/><path class="cls-1" d="M22.46,3.79c.07,0,.13-.01.19-.02-.1-.01-.15,0-.19.02Z"/><path class="cls-1" d="M78.17,1.05c.08-.01.16-.02.23-.03-.13,0-.19.01-.23.03Z"/><path class="cls-1" d="M53.25.84c.06,0,.13.01.2.01.04,0,.08,0,.13-.01h-.33Z"/><path class="cls-1" d="M40.09,3.15c.12-.18-.11.02-.4-.05l-.25.11c.24,0,.46-.04.65-.06Z"/><path class="cls-1" d="M16.72,4.98s0,0,0,.02h.02s-.02-.02-.02-.02Z"/><path class="cls-1" d="M32.37,4.13s-.09,0-.13,0c.03,0,.07,0,.13,0Z"/><path class="cls-1" d="M50.65,1.16l1.01-.04-.3-.03c-.14.09-.58-.04-.71.07Z"/><path class="cls-1" d="M44.35,2.87l.1.09c.98-.3,2.13-.11,2.91-.43,1.23.3.78-.36,1.91-.09l-.04-.05c1.83-.04,3.72-.09,5.57-.13,1.86.02,3.68,0,5.39-.09v.07c2.75,0,5.47.13,8.18.19,2.72.02,5.42.25,8.14.45.51-.03.22-.21.66-.26.19.02.62.04.62.13-.37.02-.17.12-.3.14.61.04,1.4.17,1.95.14l-.45-.16c.22-.03.55.04.74.07-.09.05.18.2.01.21,1.18-.16.89.22,1.86.21.22-.22,1.45-.29,2.27-.37l.41.11c-.56-.06,0,.18-.7.09.57.13,1.12.09,1.66.18-.1-.07-.06-.15.16-.15.33.07.35.19.73.25l-.39.03c.24.12.48.02.72.03.06.11.63.19.52.29.53-.06.7.04,1.27.04-.56-.19.17-.11.11-.2l-.65-.06c.9.2-.3-.03-.25.16-.42-.14.63-.19-.1-.27.87.04,1.04.14,1.94.13-.54-.05.12-.1-.16-.19.68.09.16.08.35.23.37.05.49.17.84.09.59.14-.11.11.18.23-.24.09-1.63-.39-1.52.01-.31-.04-.71.05-1.15-.03.38.11.92.31,1.41.3l.05-.21c.37.05.46-.08.72-.03-.15.04.09.17.39.19-.08-.04-.2-.05-.16-.08.55.06.64-.07,1.3-.01-.53-.13-.63-.21-1.12-.38.16-.13.36.03.65.06-.05.01-.11,0-.03.05l.32-.02c.66.16-.12.2.42.36.36.18.53,0,.81.12-.02-.02-.04-.03-.05-.05.06.01.11.02.14.03h0c.36.02.74.09.85,0,.03.06.31.03.43.01.21-.02.7-.08.96.16h-.02c.44.1.77.22.66.26l.7.18-.1.13c.65.08.6-.01,1.07-.08.45.17,1.27.26,1.58.26.05.02.13.03.26.05l-.26-.11c.5.1.46.02.79.08-.07-.03-.07-.04.11.02.06.01.12.03.19.05-.02.01-.09,0-.17-.03l.05.06c.37.23.64.03,1.05.17-.04,0-.11,0-.16-.02.23.08.54.35.66.25.05.03.14.02.23,0l.17.06c-.07-.02-.12-.04-.17-.06.12-.02.24-.05.24-.02l.61.17c.11.05.27.07.41.08l.09.08c.23.04.22.08.19.09.73.39,1.22.18,2.02.56.18-.06-.15-.19-.17-.25.15-.04.64,0,.9,0,.34.22,1.45.62,1.22.77.68.18-.18-.17.18-.16l.08.03c-.23-.08-.4-.19-.52-.3-.03-.12.59,0,.77.07l-.17.12c.65.1.57-.16,1.01-.21.49.18.16.25.24.41.18.03.36.06.54.1l-.03.11c.35.07.46-.01.92.17-.37,0,.68.31.17.32.25.11.39-.08.48.11.22-.07-.22-.13-.34-.2-.06-.2.6.09.93.13,0,.1-.24.04.11.21.1-.05.35-.03.53.11.03-.11.43.1.64.17-.23-.09-.55-.27-.37-.32.2,0,.36.03.78.17l-.27-.14c.42-.06.57.29,1.09.39-.23,0-.36-.03-.57,0,.25.02.72.07,1.11.12l.37.28c.08-.07.47.14.51.03.5.23-.46.01-.54.08.63.27.59-.05,1.15.34l-.24.03c.2.08.63.17.64.23.01-.04-.1-.06-.22-.1.2-.18,1,.18,1-.07l-.28-.12c.45.11.82.07,1.12.26.23.16-.23.09-.41.09.41.16.42-.13.9.06-.25-.13-.17-.19,0-.19-.28-.11-.86-.37-.79-.24l.1.06s-.21.02-.3.02c-.39-.14-.15-.17-.21-.24-.64-.26-.13.21-.72,0l-.06-.07c-.3-.04-.75-.19-.87-.07-.22-.22-.7-.14-.96-.31.04-.33,1.02.3,1.41.26-.29-.18.23-.09.38-.12-.34-.07-.68-.14-1.03-.18-.07-.07-.31-.31-.53-.25l.08.03c-.41-.08-.34.09-.67-.06-.04-.05.08-.07.11-.08-.31-.12-.29,0-.51-.03-.31-.12.2-.09-.05-.2-.4.02-.57-.2-.89-.28.08.22-1.34-.11-.7.25l-.8-.09c-.21-.17.6-.11.43-.33l.6.18c-.03-.26-1.31-.22-1.64-.59-.32-.1-.25-.05-.83-.34l.05.24c-.31-.14-.38-.28-.38-.33-.19-.04-.36-.1-.53-.15.05-.02.13-.03.24,0-.21-.19-.29-.15-.39-.11-.15.02-.34-.03-.54-.08l.2-.03c-.13-.01-.29-.03-.31,0-.08-.02-.16-.03-.24-.04.04.05.15.2.42.32-.73-.26-1.32-.35-1.92-.68.04-.05.33-.07.25-.09-.31-.11-.69-.08-.68.01-.07-.01-.13-.02-.18-.03-.05-.07-.11-.14-.26-.19-.03-.03-.08-.06-.19-.09-.15.14-.74-.09-.89-.05.14.05.32.09.5.13-.28.05-.54.12-.72-.02.5,0-.47-.29.26-.17-.46-.33-.3.09-.82-.11l-.33-.17c.08-.11.58.07.51,0l-.24-.04c.26-.03,1.16.24,1.75.24l-1.11-.34c-.73-.1-1.52-.29-2.29-.46-.78-.14-1.53-.26-2.17-.24h.05s-.04.04-.06.08l-.05-.04-.26.05c-.25-.17-.76-.29-1.17-.46q.26.13.27.22c-.08.11-.13.16-.53.03.01-.09.26-.04-.02-.16.15.07,0,.11-.18.08-.22-.1-.6-.18-.58-.27.11,0,.19.04.26.07.11,0-.41-.16-.09-.17l-.42-.05c-.23-.12.18-.08.09-.15-.7-.07-1.08.06-1.72,0,.04-.04.08-.23.06-.18-.47-.15-1.06.01-1.61-.04.09-.05.29,0,.46,0-1.66-.32-3.03-.53-4.57-.95l-.44.14-.39-.19c-1.63-.39-2.93-.4-4.51-.5-.49-.04-.28-.17-.5-.25-1.08-.14-1.37.06-2.4,0,.15-.05.41-.19-.04-.25-.09.05-.15.13-.43.07l.15-.05c-.25-.12-.5-.06-1.03-.15-.93-.11-1.84-.03-2.63.15-.83-.08.1-.21-.05-.27.58.11.41,0,.54-.07-.31.04-.69.04-.84-.11-.43-.02-.63-.04-1.06.03.22-.03.4.06.19.11-.35-.07-1.25-.08-1.19-.26-2.05-.1-4.33-.33-6.53-.35-.37.08.28.04.07.1-.54.1-.42-.08-.86,0l.18-.09c-.64-.03-1.33.13-1.95.2.11-.11-.51-.11.01-.16-.3,0-.66-.5-.9-.41l.33.48s-.44,0-.4.04c-.26-.1-.59-.22-.77-.22-.09-.12.37-.08.63-.07.04-.2-.85-.15-.48-.32-.54.02.07.1-.25.17l-.47-.06.36.08c-.4.05-.53.19-1.06.07-.18.06-.36.12-.55.18-.05-.16-.4-.03-.68-.06l.18-.1c-.37,0-.52-.02-.75-.07.21-.14.34.03.43-.1l-.41-.04c0,.09-.26.16.03.21-.38.17-.59.31-1.54.3-.43-.15.46-.14.28-.28-.99-.06-1.21.4-1.78.39-.74-.06-.69.08-1.44.1.24-.1-.52-.11-.66-.2l.29-.11c-.23.03-.45,0-.38-.08.04.14-.97.14-1.48.21l.09.12c-.4.04-.96.15-1.38.14-.63.07-.48.17-.97.32-.27-.09-.25-.22-.16-.36.17.05.46,0,.74.03.8-.13,1.41-.44,2.22-.37.34-.28-.54.03-.93-.05.01-.02.04-.02.07-.03-.03,0-.07,0-.1,0,.29-.06.75-.1.83-.25-.48.04-.34.28-.94.19-.44.1-.81-.11-1.08-.11-.29.12-.3.35-1.02.34l.31-.18c-.82.04-.38.25-1.14.28.27,0-.25.17.26.15-.25.1-.8.14-1.21.11-.11.03-.02.06-.04.11.46.09.72-.14,1.1,0l.31-.19c.43.04.47.18.22.26.12-.01.22-.04.31-.02.08.26-.51-.07-.65.16l.3-.03c.14.16-.69.18-1.08.19-.44-.06-.84-.07-.88-.19l.58-.08c-.31-.08-.75.09-1.09.1-.02-.02-.06-.03-.1-.03.02.01.03.02.03.03-.07,0-.14-.01-.19-.04-.3,0-.73.1-1.01.08l.04.11.03-.06c.27,0,.65.04.45.13-.61.1-.75-.1-.9-.19.13-.17.6-.03.91-.1-.2-.16-.63.01-1.27-.07.24-.19.74-.03.87-.21-.52,0-.64.13-1.19.11.06-.09.59-.12.55-.23l-.35-.04c.85-.05-.16-.22.5-.29-.32-.06-.43.17-.89.07.13.07.5.2.07.29l-.49-.03c-.21-.08.49-.22.17-.28-.17.03-.34.06-.5.09.02.05.26.06.12.15-.3-.03-.46.25-.8.36-.27.02-.49.03-.59-.03-.68.22-1.55.29-2.17.5.42-.15-.03-.18-.3-.24.5-.07.49-.24.44-.34-.3.05-.49.24-.33.28-.51-.02-.34.15-.8.07-.29-.03.13-.18.02-.24-.55.04-.13.22-.73.23.03-.03.08-.04.03-.06-.33,0-.66.1-.72.19-.36-.19-.96.11-.92-.11-.77.13.13.11-.02.2-.31.12-.9.1-1.09.08.19-.02.36-.1.55-.08l-.18-.13c-.98-.02-.58.41-1.52.39.47-.14.15-.13.37-.27-.14.06-.87.11-.42.17-.35.03-.6.04-.84.04-.3.1-.64.18-.8.3-.49.05-.87,0-1.11-.04-1.01.24-1.99.19-3.06.44h.08c-.85.08.4.15-.47.26.09-.2-.54-.05-.84-.11-1.08.1-1.82.46-2.82.52,0-.04.06-.1.25-.13-.76.08-1.36.22-2.03.33l.03-.03c-1.11.05-2.06.4-3.17.65.09-.04.1-.11.16-.15-.57.05-1.47.26-1.83.51-.7-.02-.43.16-1.32.18-.06-.02.08-.05.13-.07-.43.04-.73.13-1.16.2-.91.33-1.09.62-2.19.8-.12-.23.65-.22.63-.41-.21.09-.38.19-.7.2.16-.14.02-.07.13-.19-.25-.01-.86.47-.86.44,0,.05.08.06.3,0-.21.22-1.07.24-1.57.46.17-.05.72-.14.55.03-.71.14-.88.45-1.34.68-.67.08.42-.34.25-.47-.12-.03-.42-.09-.17-.23-.59.13-.97.4-1.47.58v-.05c-.71.23-1.42.66-2.05.74l.34-.04c-.11.06-.48.15-.65.31,0-.09-.49-.02-.32-.14-.24.35-1.59.63-1.87.97-.21,0-.09-.15-.05-.23.46-.11.63-.11.84-.28-.38.11-.67.13-.63.06-.33.25-1.19.64-1.33.86-.3.02-.57.07-.52-.09-1.11.49.7.2-.58.66-.63.08.51-.37-.31-.13l.14-.07c-.7-.12-.33.38-.99.61-.15-.15.41-.29-.09-.26-.59.26-.75.62-1.38.78l.07-.11c-.39.14-1.13.4-1.52.54-.03-.03.03-.04.1-.08-.74.19-.26.2-.89.28l-.13.15c.32-.04.91-.16,1.24-.39-.33.23.66.02.54.24l.05-.09c1.06-.08,2.31-.49,3.55-.83.71-.46,1.32-.4,2.11-.81.06-.25.14-.09.85-.34-.37.14,0,.18.26.13.12-.1.29-.17.45-.24.17.03,1.13-.06,1.42-.3.46-.06-.08.1-.16.17.21.06.33-.19.5-.16,0,0,0,.03-.04.05.67-.2,1.08-.26,1.79-.44,0-.23.66-.28.95-.45-.08.1.41-.03.62-.05l.33-.27c.33-.25.54-.04,1.01-.23h-.13c.34-.16,1.31-.25,1.68-.21,3.18-1.16,5.1-1.01,8.57-1.69.21-.11-.19-.08-.03-.21.35-.09.43-.09.75-.16-.3,0-.24.06-.21,0l-.48.15s.03-.03-.03-.05c-.16.05-.35.13-.56.15.29-.11.35-.29.78-.3-.03.03-.08.04-.19.08.35-.05.35-.13.62-.13.32-.02.24-.06.29,0l1-.09c.46-.28,1.1-.21,1.26-.22-.08.16-.65.16-.86.35l.37.04v-.12s.51-.06.51-.06l-.02.03c.05-.06.11-.11.24-.09.02.01.08.03.02.05l.35-.13c-.19.16.32-.02.29.12,1.18-.15,1.48-.4,2.54-.36-.18-.04.3-.26.62-.28.19,0,.24.03.13.1l.41-.13c.56.15,1.05-.06,1.83-.09l-.03.07c.28-.11.58-.21,1.01-.24l-.06.13c.53.02.37-.31.96-.31-.02-.13-.39-.15-.46-.27.15.11.78.05.62-.02.57-.13.4-.05.45-.02l.33-.12c.41-.05.15.15,0,.25.36-.2.79-.12,1.22-.14l-.17.07.57-.03c.36-.13.88-.19,1.36-.18l-.31.2c.34.06.17-.07.25-.11.52-.13.65-.02.94.05.83-.26,1.72.13,2.42-.19ZM102.99,6.01l-.07-.04c.18.01.29,0,.07.04ZM98.39,5.03c.57.04.38.09.41.14-.54-.15-.85-.16-1.33-.3.07.05.08.1.1.13-.19-.05-.38-.12-.43-.22.27-.13,1.47.39,1.25.25ZM108.94,6.49l-.07.02h0s.08-.02.08-.02ZM106.16,5.99s-.09-.08-.17-.11c.04.06.08.11.17.11ZM100.74,4.55c-.11-.1-.41-.13-.62-.15.1.03.27.08.62.15ZM65.64.76c.17-.02.49-.09.2-.15-.14.06-.41-.06-.53.03-.02,0-.02,0-.03,0,.17.06.31.12.36.12ZM49.07,1.6c.03-.07.15-.16.06-.21h.05s-.08-.04-.05-.05c-.14,0-.28-.02-.37,0-.03.23-.31.28.31.25Z"/><path class="cls-1" d="M54.57.38c-.06,0-.11,0-.15.01.04,0,.09,0,.15-.01Z"/><path class="cls-1" d="M48.79,1.34s.15.03.34.05c-.04-.03-.14-.05-.34-.05Z"/><path class="cls-1" d="M117.47,9.89l-.16-.03.29.17c.54.11.6.02.76-.04-.5-.06-.76-.21-1.37-.39l.48.29Z"/><path class="cls-1" d="M117.45,9.06s-.15-.17-.22-.2l-.1.04.32.16Z"/><path class="cls-1" d="M111.31,6.83l.49.21c.18-.01-.38-.29-.49-.21Z"/><path class="cls-1" d="M113.19,8.65h.28c-.22-.13-.54-.21-.61-.14.33.05.06.07.33.14Z"/><path class="cls-1" d="M109.97,6.42c-.19.09-.49-.21-.62-.11.14,0,.56.24.62.11Z"/><path class="cls-1" d="M109.97,7.8c.12.17.42.14.72.26-.26-.08-.59-.32-.72-.26Z"/><path class="cls-1" d="M107.15,6.12c.05-.09.26-.03.5.05-.09.01-.15.04-.26.03.42.02.44.04.78.07-.3-.14-.77-.3-.69-.41-.26.03-.59.1-.32.26Z"/><path class="cls-1" d="M109.21,7.6c.25.11.39.25.7.33-.04-.08-.11-.21-.49-.3l.16-.07c-.32-.18.09.19-.38.04Z"/><path class="cls-1" d="M105.74,5.51l.15.09c.4,0,.87.16,1.11.07-.46-.1-1.03-.17-1.26-.16Z"/><path class="cls-1" d="M107.96,7.06l-.09.15c.37.11-.01-.06.13-.06.1.05.26.1.34.09-.43-.08,0-.13-.38-.17Z"/><path class="cls-1" d="M106.7,6.95l-.49-.05.33.26c.57.07.05-.09.16-.22Z"/><path class="cls-1" d="M106.14,6.7l-.05-.04-.77.06c.45,0,.47.02.82-.02Z"/><path class="cls-1" d="M97.62,3.8c-.09.05.32.22.15.11.09-.04-.46-.24-.15-.11Z"/><path class="cls-1" d="M99.1,5.41c-.2-.09-.89-.12-1.19-.13.36.03,1.22.23,1.19.13Z"/><path class="cls-1" d="M97.79,5.27s.07,0,.12,0c-.05,0-.09,0-.12,0Z"/><path class="cls-1" d="M85.28,3.71s-.06,0-.09,0c.03,0,.06,0,.09,0Z"/><path class="cls-1" d="M85.59,3.7c.2.04.61.05.68-.02-.32,0-.61,0-.99.03.14,0,.31.08.3,0Z"/><path class="cls-1" d="M82.72,3.35c.15-.03.36.02.31-.06-.08-.04-.41,0-.31.06Z"/><path class="cls-1" d="M63.29.13c-.28-.05-.45-.02-.37.08.31,0,.14-.06.37-.08Z"/><polygon class="cls-1" points="62.56 .24 62.52 .19 62.34 .11 62.56 .24"/><path class="cls-1" d="M60.62.11s.06-.03.12-.05c-.11.01-.2.03-.12.05Z"/><path class="cls-1" d="M60.8.05s-.04,0-.06,0h.06Z"/><path class="cls-1" d="M60.92.08l.02-.05s-.09.02-.15.02c.05,0,.11,0,.13.03Z"/><path class="cls-1" d="M60.04.09l.37.15c.38-.08-.44-.08-.06-.24l-.31.09Z"/><path class="cls-1" d="M58.76.14c-.35-.05-.86.2-1.06.02-1,.1.23.3-.91.38,1.08.09.54-.36,1.5-.26-.46-.11.31-.09.46-.14Z"/><path class="cls-1" d="M58.93.45c.06-.09-.39-.1-.53-.03.13,0,.36.14.53.03Z"/><polygon class="cls-1" points="56.8 .24 56.5 .17 56.42 .23 56.8 .24"/><path class="cls-1" d="M55.64.21l.3-.11c-.1.04-.54.04-.3.11Z"/><path class="cls-1" d="M54.03.12c-.28-.02-.53.23.06.15h-.13s-.29-.11.07-.15Z"/><path class="cls-1" d="M50.32.68c.19,0,.42-.05.38-.09l-.52.07.15.02Z"/><path class="cls-1" d="M50.42,1.27c.18.14.49-.04.84,0-.4-.01-.35-.03-.84,0Z"/><path class="cls-1" d="M49.7.5c.14-.07.36-.04.49-.04-.07-.08-.43-.04-.49.04Z"/><path class="cls-1" d="M48.86.59c-.18-.05.03-.08-.1-.12-.37-.05-.76-.02-.97.07.1.06.24.22.1.31.59-.08.87-.37,1.17-.17l.48-.28c-.47-.02-.35.2-.68.2Z"/><path class="cls-1" d="M50.08,1.02l-.32-.07c.07.08-.17.11-.34.14.09.19.48-.05.66-.07Z"/><polygon class="cls-1" points="45.6 .89 44.94 .99 45.16 .98 45.6 .89"/><polygon class="cls-1" points="45.17 .86 45.15 .81 44.64 .96 45.17 .86"/><polygon class="cls-1" points="44.46 .86 44.54 .86 44.93 .78 44.46 .86"/><path class="cls-1" d="M43.07.95l.13.07c.17-.04.51.02.47-.08-.14.05-.5.07-.6.01Z"/><path class="cls-1" d="M38.67,3.38c.11-.06.04-.1-.04-.14l-.18.15c.06-.01.17-.03.22,0Z"/><path class="cls-1" d="M37.84,3.25l-.47.22c.57-.05.63-.19,1.12-.26-.22-.03-.49.12-.76.11l.11-.07Z"/><path class="cls-1" d="M28.04,4.53c.03-.11-.08-.07.27-.2-.49.15-.91.21-1.48.32.11.04-.3.23-.08.16l.62-.17-.08.08c.46,0,.27-.16.75-.19Z"/><path class="cls-1" d="M2.73,10.01c.04-.07-.05-.08-.14-.1-.34.18.21.06.14.1Z"/></g></svg>